<?xml version="1.0" standalone="no"?><!DOCTYPE svg PUBLIC "-//W3C//DTD SVG 1.1//EN" "http://www.w3.org/Graphics/SVG/1.1/DTD/svg11.dtd"><svg width="100%" height="100%" viewBox="0 0 1280 800" version="1.1" xmlns="http://www.w3.org/2000/svg" xmlns:xlink="http://www.w3.org/1999/xlink" xml:space="preserve" style="fill-rule:evenodd;clip-rule:evenodd;stroke-linecap:round;stroke-linejoin:round;stroke-miterlimit:1.41421;"><path d="M979.275,614.774l-5.055,-151.478l-252.013,-3.031l2.017,155.649l199.482,1.022l55.569,-2.162Z" style="fill:#f8e9d3;"/><path d="M887.855,502.55l0,1.211l38.702,1.2l0,-2.146l-38.702,-0.265Z" style="fill:none;stroke-width:1px;stroke:#eaceb7;"/><path d="M888.154,519.334l0,1.916l38.168,0.705l0,-1.493l-38.168,-1.128Z" style="fill:none;stroke-width:1px;stroke:#eaceb7;"/><path d="M845.93,518.563l-0.094,1.681l37.985,1.029l0.517,-1.77l-38.408,-0.94Z" style="fill:none;stroke-width:1px;stroke:#eaceb7;"/><path d="M932.456,577.695l39.563,0.587l-0.733,3.542l-37.98,-0.577l-0.85,-3.552Z" style="fill:#eaceb7;"/><path d="M889.746,580.438l0.289,-3.145l38.723,0.072l0,3.722l-39.012,-0.649Z" style="fill:#eaceb7;"/><path d="M844.575,575.832l40.251,0.673l0.276,3.925l-40.239,0.192l-0.288,-4.79Z" style="fill:#eaceb7;"/><path d="M846.275,542.406l0.277,4.79l37.597,0.085l0.444,-4.226l-38.318,-0.649Z" style="fill:#eaceb7;"/><path d="M931.988,547.385l1.034,30.556" style="fill:none;stroke-width:1px;stroke:#eaceb7;"/><path d="M889.548,546.584l0.994,30.965" style="fill:none;stroke-width:1px;stroke:#eaceb7;"/><path d="M976.841,540.182l-2.621,-76.886l-252.013,-3.031l0.485,64.628" style="fill:#eaceb7;"/><path d="M893.416,526.491l-0.136,5.273l10.058,0.229l0.365,-5.056l-10.287,-0.446Z" style="fill:#d29a67;"/><path d="M841.505,503.325l-33.606,-0.652l0,-1.458l33.758,0.282l-0.152,1.828Z" style="fill:#d29a68;"/><path d="M845.759,502.774l38.115,1.269l0.229,-1.728l-38.467,-0.706l0.123,1.165Z" style="fill:#d29a67;"/><g id="large roof"><path d="M571.443,176.793l143.61,-49.667l296.912,116.607" style="fill:none;stroke-width:1px;stroke:#000;"/><path d="M592.362,184.752l122.524,-43.647l292.35,115.504" style="fill:none;stroke-width:1px;stroke:#000;"/></g><path id="attic vent" d="M704.729,151.514l-0.404,34.3l19.768,0.939l0.711,-35.049l-20.075,-0.19Z" style="fill:none;stroke-width:1px;stroke:#000;"/><path d="M646.894,209.829l-5.662,42.132l-5.273,-0.499" style="fill:none;stroke-width:1px;stroke:#000;"/><path d="M639.238,252.735l-0.898,27.007" style="fill:none;stroke-width:1px;stroke:#000;"/><g id="round window"><ellipse cx="557.488" cy="263.78" rx="25.919" ry="24.587" style="fill:url(#_Linear1);"/><ellipse id="round window light color" cx="558.311" cy="265.137" rx="23.733" ry="22.864" style="fill:#b9d6ef;stroke-width:1px;stroke:#000;"/><path id="round window dark shadow " d="M542.143,248.97c9.205,-9.204 23.922,-9.432 32.845,-0.509c8.923,8.923 8.695,23.64 -0.51,32.844" style="fill:#a1cbdd;"/><g id="frame"><path d="M546.835,245.574l-1.209,38.323" style="fill:#757f7e;stroke-width:1.5px;stroke:#ededed;"/><path d="M541.126,249.796l35.324,1.332" style="fill:none;stroke-width:1.5px;stroke:url(#_Linear2);"/><path d="M569.541,284.825l0.791,-39.05" style="fill:none;stroke-width:1.5px;stroke:url(#_Linear3);"/><path d="M540.246,279.593l35.341,1.436" style="fill:none;stroke-width:1.5px;stroke:#f2f2f2;"/></g><circle cx="558.123" cy="261.53" r="32.374" style="fill:none;stroke-width:1px;stroke:#000;"/><ellipse cx="557.488" cy="263.78" rx="25.919" ry="24.587" style="fill:none;stroke-width:1px;stroke:#000;"/><ellipse cx="558.311" cy="265.137" rx="23.733" ry="22.864" style="fill:none;stroke-width:1px;stroke:#000;"/></g><path d="M635.573,209.165l-1.64,109.193" style="fill:none;stroke-width:1px;stroke:#000;"/><g id="door frame"><path id="door outer" d="M407.89,382.499l5.987,-151.47l81.909,1.436l-2.532,152.43l-85.364,-2.396Z" style="fill:#d2d7df;"/><path id="door outer1" d="M413.877,231.029l81.909,1.436l-2.532,152.43l-5.401,-0.151" style="fill:#a7b0c0;"/><path id="door light color" d="M490.441,239.394l-70.936,-1.133l-7.266,143.994l75.176,2.4l3.026,-145.261Z" style="fill:#f8e9d3;"/><path id="door shadow" d="M487.811,384.655l3.026,-145.261l-64.578,-1.032l-6.358,-0.101" style="fill:#eaceb7;"/><path d="M493.256,384.656l23.472,1.174l3.84,-164.338l-106.36,-3.009l-0.652,12.69l82.376,0.899l-2.676,152.584Z" style="fill:#e4c49c;"/><path d="M407.804,381.936l5.47,-151.079l82.78,1.35l-2.744,85.658" style="fill:none;stroke-width:1px;stroke:#000;"/><path d="M412.491,381.844l7.115,-143.965l71.615,1.212l-2.45,96.088" style="fill:none;stroke-width:1px;stroke:#000;"/><path d="M421.978,218.718l98.68,2.909l-4.228,161.818" style="fill:none;stroke-width:1px;stroke:#000;"/></g><path d="M414.979,189.13l100.361,-34.12l122.645,48.924l9.004,0.014l-0.604,5.071l-2.709,2.835l-6.233,-0.573l0.036,9.659l-1.618,0.113l-0.365,-12.219l-120.388,-47.9l-98.412,33.366" style="fill:none;stroke-width:1px;stroke:#000;"/><g id="door window"><path id="right most color" d="M462.315,263.599l8.712,-7.245l2.383,2.6l1.752,4.976l0.051,2.305l-10.947,0.241l-1.951,-2.877Z" style="fill:#004c7b;"/><path id="right center color" d="M457.914,250.153l-0.685,11.083l1.965,0.9l9.308,-7.954l-2.829,-2.096l-3.597,-1.291l-3.075,-0.695l-1.087,0.053Z" style="fill:#004c7b;"/><path id="left most color" d="M436.676,264.873l9.817,0.877l2.268,-2.287l-7.451,-7.965l-1.456,1.094l-1.497,1.721l-0.731,1.657l-0.841,2.224l-0.109,2.679Z" style="fill:#004c7b;"/><path id="left center color" d="M443.755,253.588l7.545,8.281l2.937,-0.155l0.443,-11.493l-2.853,0.102l-1.67,0.506l-1.698,0.558l-1.734,0.583l-2.035,0.862l-0.935,0.756Z" style="fill:#004c7b;"/><path id="center window" d="M451.192,265.728l9.897,0.491l-1.786,-1.801l-2.577,-0.678l-3.232,0.404l-2.179,1.147l-0.123,0.437Z" style="fill:#004c7b;"/><path d="M475.409,266.439c0,-3.844 -1.57,-7.465 -4.217,-10.337" style="fill:none;stroke-width:1px;stroke:#000;"/><path d="M468.948,254.046c-3.024,-2.341 -6.913,-3.877 -11.238,-4.152" style="fill:none;stroke-width:1px;stroke:#000;"/><path d="M454.881,249.855c-4.36,0.248 -8.364,1.567 -11.585,3.662" style="fill:none;stroke-width:1px;stroke:#000;"/><path d="M441.259,255.175c-3.014,2.607 -4.976,5.894 -4.976,9.852" style="fill:none;stroke-width:1px;stroke:#000;"/><path d="M461.614,266.257c-1.219,-1.549 -3.388,-2.581 -5.857,-2.581c-2.231,0 -4.217,0.843 -5.478,2.148" style="fill:none;stroke-width:1px;stroke:#000;"/><path id="left most pane" d="M441.377,255.313l7.715,8.039l-2.547,2.561l-10.262,-0.886" style="fill:none;stroke-width:1px;stroke:#000;"/><path id="left center pane" d="M454.884,250.008l-0.412,11.72l-3.214,0.314l-7.841,-8.375" style="fill:none;stroke-width:1px;stroke:#000;"/><path id="right center pane" d="M468.875,254.115l-9.44,8.153l-2.45,-0.835l0.707,-11.356" style="fill:none;stroke-width:1px;stroke:#000;"/><path id="right most pane" d="M475.407,266.438l-11.297,0.165l-2.085,-2.822l9.098,-7.65" style="fill:none;stroke-width:1px;stroke:#000;"/><path d="M461.545,266.339l-11.264,-0.484" style="fill:none;stroke-width:1px;stroke:#000;"/><path d="M434.431,267.415l44.896,1.788" style="fill:none;stroke-width:1px;stroke:#000;"/></g><g id="door knob"><path d="M484.498,327.568c1.278,0 2.628,1.182 2.628,2.503c0,1.322 -1.593,2.443 -2.871,2.443" style="fill:#9ea6b3;stroke-width:1px;stroke:#000;"/><circle cx="482.881" cy="329.984" r="2.731" style="fill:#d2d8e2;stroke-width:1px;stroke:#000;"/><path d="M481.768,328.045c1.063,-0.613 2.425,-0.246 3.041,0.82c0.615,1.066 0.252,2.43 -0.81,3.043" style="fill:#9ea6b3;"/></g><path d="M1024.38,268.268l13.391,286.178" style="fill:none;stroke-width:1px;stroke:#000;"/><g id="garage"><path d="M990.625,615.597l-5.644,-161.315l-132.753,-2.09" style="fill:none;stroke-width:1px;stroke:#000;"/><path d="M851.989,455.629l129.451,3.384l-6.735,3.84l4.245,152.627" style="fill:none;stroke-width:1px;stroke:#000;"/><path d="M840.376,460.831l133.788,2.123" style="fill:none;stroke-width:1px;stroke:#000;"/></g><g id="window"><path d="M742.658,279.943l160.448,3.605l1.562,84.797l-160.119,-3.742l-1.891,-84.66Z" style="fill:#b9d6ef;"/><path d="M743.009,295.65l-0.351,-15.707l160.448,3.605l0.834,45.269" style="fill:#91bfe6;"/><path id="outer frame" d="M738.919,274.061l168.454,2.536l2.811,96.565l-168.971,-2.895l-2.294,-96.206Z" style="fill:none;stroke-width:1px;stroke:#000;"/><path id="inner frame" d="M850.411,367.028l54.363,1.747l-1.552,-85.496l-160.841,-3.22" style="fill:none;stroke-width:1px;stroke:#000;"/><path id="connector" d="M907.208,277.162c-2.522,3.83 -3.932,6.164 -3.932,6.164" style="fill:none;stroke-width:1px;stroke:#000;"/></g><path d="M1037.42,562.385l8.604,-2.539l19.856,0.089l214.57,147.305" style="fill:none;stroke-width:1px;stroke:#000;"/><path d="M1045.97,560.205l0.291,65.82l19.94,2.513c0,0 219.208,124.407 220.304,124.407" style="fill:none;stroke-width:1px;stroke:#000;"/><path d="M1065.89,560.183c0,0 0.215,68.27 0.215,67.961" style="fill:none;stroke-width:1px;stroke:#000;"/><path d="M1037.35,562.451l1.304,55.823l7.614,7.684" style="fill:none;stroke-width:1px;stroke:#000;"/><path d="M990.659,615.663l47.926,2.668" style="fill:none;stroke-width:1px;stroke:#000;"/><path d="M343.137,460.663l154.978,3.689l0,20.948l23.586,0l0,5.773l1.393,0l0,12.539l29.568,0l0,5.898l-19.302,0" style="fill:none;stroke-width:1px;stroke:#000;"/><g id="steps"><path d="M481.112,399.068l-76.544,-1.033" style="fill:none;stroke-width:1px;stroke:#000;"/><path d="M480.931,411.707l-84.915,-2.518" style="fill:none;stroke-width:1px;stroke:#000;"/><path d="M480.791,424.131l-94.867,-1.852" style="fill:none;stroke-width:1px;stroke:#000;"/><path d="M481.157,437.032l-107.894,-1.768" style="fill:none;stroke-width:1px;stroke:#000;"/><path d="M486.957,450.889l-117.504,-2.322" style="fill:none;stroke-width:1px;stroke:#000;"/></g><path d="M352.932,446.919l12.209,13.464" style="fill:none;stroke-width:1px;stroke:#000;"/><path d="M521.89,491.057l-24.496,0l0.334,-5.038l-26.212,0" style="fill:none;stroke-width:1px;stroke:#000;"/><path d="M990.737,615.708l-11.251,-0.268l-49.248,1.796" style="fill:none;stroke-width:1px;stroke:#000;"/><path d="M1033.77,454.844l60.107,1.682" style="fill:none;stroke-width:1px;stroke:#000;"/><path d="M1033.08,443.584l104.035,2.71" style="fill:none;stroke-width:1px;stroke:#000;"/><path d="M1174.88,462.342l0,94.195" style="fill:none;stroke-width:1px;stroke:#000;"/><path d="M931.503,547.679l-0.243,-3.879l38.305,1.377l-0.213,3.47l-37.849,-0.968Z" style="fill:#eaceb7;"/><path d="M889.03,546.881l-0.288,-3.65l38.761,0.828l0,3.913l-38.473,-1.091Z" style="fill:#eaceb7;"/><defs><linearGradient id="_Linear1" x1="0" y1="0" x2="1" y2="0" gradientUnits="userSpaceOnUse" gradientTransform="matrix(34.8554,-31.2943,31.2943,34.8554,535.992,276.019)"><stop offset="0%" style="stop-color:#fff;stop-opacity:1"/><stop offset="100%" style="stop-color:#101010;stop-opacity:1"/></linearGradient><linearGradient id="_Linear2" x1="0" y1="0" x2="1" y2="0" gradientUnits="userSpaceOnUse" gradientTransform="matrix(35.8592,0,0,1.33238,541.126,250.462)"><stop offset="0%" style="stop-color:#f2f2f2;stop-opacity:1"/><stop offset="42%" style="stop-color:#ddddda;stop-opacity:1"/><stop offset="100%" style="stop-color:#adada6;stop-opacity:1"/></linearGradient><linearGradient id="_Linear3" x1="0" y1="0" x2="1" y2="0" gradientUnits="userSpaceOnUse" gradientTransform="matrix(-0.734341,-35.8517,1.3321,-0.0272851,570.295,281.323)"><stop offset="0%" style="stop-color:#f2f2f2;stop-opacity:1"/><stop offset="44%" style="stop-color:#dddddb;stop-opacity:1"/><stop offset="100%" style="stop-color:#adada6;stop-opacity:1"/></linearGradient></defs></svg>