<?xml version="1.0" standalone="no"?><!DOCTYPE svg PUBLIC "-//W3C//DTD SVG 1.1//EN" "http://www.w3.org/Graphics/SVG/1.1/DTD/svg11.dtd"><svg width="100%" height="100%" viewBox="0 0 400 400" version="1.1" xmlns="http://www.w3.org/2000/svg" xmlns:xlink="http://www.w3.org/1999/xlink" xml:space="preserve" style="fill-rule:evenodd;clip-rule:evenodd;stroke-linejoin:round;stroke-miterlimit:1.41421;"><g><path d="M62.795,265.048c1.443,0.045 2.829,0.067 4.16,0.067c1.342,0 2.728,-0.022 4.16,-0.067l0.067,0.722l-2.08,0.62c-0.269,0.067 -0.414,0.241 -0.436,0.52c-0.011,0.391 -0.02,0.819 -0.025,1.283c-0.006,0.464 -0.009,0.97 -0.009,1.518l0,9.175c0,3.198 0.509,5.415 1.527,6.65c1.017,1.236 2.655,1.854 4.914,1.854c2.292,0 3.953,-0.638 4.981,-1.912c1.029,-1.275 1.544,-3.405 1.544,-6.391l0,-9.376c0,-0.548 -0.003,-1.054 -0.009,-1.518c-0.005,-0.464 -0.019,-0.892 -0.042,-1.283c-0.011,-0.257 -0.156,-0.43 -0.436,-0.52l-1.962,-0.57l-0.034,-0.772c1.42,0.045 2.639,0.067 3.657,0.067c0.972,0 2.158,-0.022 3.555,-0.067l0.068,0.722l-2.114,0.654c-0.257,0.089 -0.391,0.279 -0.402,0.57c-0.012,0.369 -0.02,0.783 -0.026,1.241c-0.005,0.459 -0.008,0.973 -0.008,1.543l0,8.605c0,3.667 -0.746,6.379 -2.239,8.134c-1.493,1.756 -3.844,2.634 -7.053,2.634c-3.142,0 -5.462,-0.791 -6.961,-2.374c-1.498,-1.582 -2.247,-4.039 -2.247,-7.371l0,-9.628c0,-0.57 -0.003,-1.084 -0.009,-1.543c-0.005,-0.458 -0.014,-0.872 -0.025,-1.241c-0.011,-0.291 -0.145,-0.481 -0.402,-0.57l-2.08,-0.654l-0.034,-0.722Z" style="fill:#da9959;fill-rule:nonzero;"/><path d="M93.003,269.829l0,13.552c0,1.319 0.011,2.415 0.034,3.287c0.011,0.313 0.15,0.504 0.419,0.571l1.996,0.587l0.033,0.754c-1.397,-0.033 -2.544,-0.05 -3.438,-0.05c-0.872,0 -2.03,0.017 -3.472,0.05l-0.067,-0.721l2.063,-0.62c0.291,-0.09 0.442,-0.263 0.453,-0.52c0.022,-0.906 0.033,-2.019 0.033,-3.338l0,-13.603c0,-1.118 -0.011,-2.046 -0.033,-2.784c-0.011,-0.291 -0.146,-0.481 -0.403,-0.57l-2.08,-0.654l-0.033,-0.722c1.442,0.045 2.583,0.067 3.422,0.067c0.503,0 1.011,-0.022 1.526,-0.067l14.089,17.595l0,-12.932c0,-1.085 -0.011,-2.018 -0.034,-2.801c-0.011,-0.257 -0.156,-0.43 -0.436,-0.52l-1.979,-0.57l-0.033,-0.772c1.431,0.045 2.588,0.067 3.472,0.067c0.894,0 2.04,-0.022 3.438,-0.067l0.067,0.722l-2.113,0.654c-0.257,0.089 -0.392,0.279 -0.403,0.57c-0.022,0.738 -0.033,1.666 -0.033,2.784l0,18.752l-1.409,0.134l-15.079,-18.835Z" style="fill:#da9959;fill-rule:nonzero;"/><path d="M132.855,270.902l-0.671,0.101l-1.157,-4.395c-1.364,-0.358 -2.645,-0.537 -3.841,-0.537c-2.796,0 -4.976,0.948 -6.542,2.843c-1.565,1.896 -2.348,4.509 -2.348,7.842c0,3.365 0.856,6.041 2.567,8.025c1.71,1.985 4.014,2.978 6.91,2.978c0.973,0 1.929,-0.123 2.868,-0.369l0,-4.479c0,-0.559 -0.003,-1.068 -0.008,-1.526c-0.006,-0.458 -0.014,-0.878 -0.026,-1.258c-0.011,-0.291 -0.145,-0.475 -0.402,-0.553l-2.08,-0.655l-0.033,-0.721c1.442,0.034 2.823,0.05 4.142,0.05c1.342,0 2.639,-0.016 3.892,-0.05l0.084,0.721l-1.829,0.537c-0.268,0.09 -0.413,0.263 -0.436,0.52c-0.011,0.447 -0.019,0.903 -0.025,1.367c-0.006,0.464 -0.008,0.964 -0.008,1.501l0,5.367l-0.101,0.118c-2.281,0.548 -4.378,0.822 -6.29,0.822c-3.925,0 -7.047,-1.04 -9.367,-3.12c-2.321,-2.08 -3.481,-4.981 -3.481,-8.705c0,-3.958 1.2,-7.059 3.598,-9.301c2.399,-2.241 5.683,-3.362 9.854,-3.362c1.8,0 3.69,0.229 5.669,0.687l0.101,0.134l-1.04,5.418Z" style="fill:#da9959;fill-rule:nonzero;"/><path d="M142.885,265.115l4.076,0c2.505,0 5.149,-0.022 7.933,-0.067l0.101,0.134l-0.973,5.183l-0.671,0.118l-1.04,-3.875l-7.749,0l0,9.225l1.527,0c1.163,0 2.46,-0.011 3.891,-0.033c0.291,-0.012 0.481,-0.157 0.57,-0.436l0.587,-2.265l0.906,-0.033c-0.034,1.565 -0.05,2.722 -0.05,3.472c0,0.726 0.016,1.867 0.05,3.421l-0.906,0.067l-0.604,-2.298c-0.089,-0.29 -0.262,-0.441 -0.519,-0.452c-1.454,-0.023 -2.768,-0.034 -3.942,-0.034l-1.51,0l0,6.105c0,1.242 0.012,2.466 0.034,3.674l8.051,0l2.046,-4.261l0.755,-0.134l-0.369,5.837l-0.118,0.117c-2.896,-0.033 -5.568,-0.05 -8.017,-0.05l-3.992,0c-1.353,0 -2.739,0.017 -4.159,0.05l-0.068,-0.721l2.064,-0.62c0.279,-0.079 0.43,-0.252 0.452,-0.52c0.012,-0.448 0.02,-0.948 0.026,-1.501c0.005,-0.554 0.008,-1.166 0.008,-1.837l0,-13.603c0,-0.57 -0.003,-1.084 -0.008,-1.543c-0.006,-0.458 -0.014,-0.872 -0.026,-1.241c-0.011,-0.291 -0.145,-0.481 -0.402,-0.57l-2.08,-0.654l-0.034,-0.722c1.443,0.045 2.829,0.067 4.16,0.067Z" style="fill:#da9959;fill-rule:nonzero;"/><path d="M164.505,283.381c0,0.671 0.003,1.275 0.009,1.811c0.005,0.537 0.014,1.024 0.025,1.46c0.011,0.346 0.156,0.564 0.436,0.654l1.862,0.553l0.05,0.721c-1.331,-0.033 -2.661,-0.05 -3.992,-0.05c-1.353,0 -2.74,0.017 -4.16,0.05l-0.067,-0.721l2.063,-0.62c0.28,-0.079 0.431,-0.252 0.453,-0.52c0.011,-0.448 0.02,-0.948 0.025,-1.501c0.006,-0.554 0.009,-1.166 0.009,-1.837l0,-13.603c0,-0.57 -0.003,-1.084 -0.009,-1.543c-0.005,-0.458 -0.014,-0.872 -0.025,-1.241c-0.011,-0.291 -0.145,-0.481 -0.402,-0.57l-2.08,-0.654l-0.034,-0.722c1.443,0.045 2.846,0.067 4.21,0.067c0.269,0 0.61,-0.008 1.023,-0.025c0.414,-0.017 0.917,-0.036 1.51,-0.058c0.604,-0.023 1.107,-0.04 1.509,-0.051c0.403,-0.011 0.722,-0.017 0.956,-0.017c2.55,0 4.462,0.481 5.737,1.443c1.274,0.962 1.912,2.365 1.912,4.21c0,1.666 -0.436,3.016 -1.308,4.05c-0.873,1.035 -2.203,1.831 -3.992,2.391c0.704,1.073 1.353,2.11 1.945,3.111c0.593,1.001 1.144,1.918 1.652,2.751c0.509,0.833 0.976,1.568 1.401,2.205c0.425,0.638 0.822,1.141 1.191,1.51c0.19,0.19 0.38,0.355 0.57,0.495c0.19,0.139 0.389,0.254 0.596,0.343c0.206,0.09 0.424,0.168 0.654,0.235c0.229,0.067 0.483,0.134 0.763,0.202l0.05,0.738c-0.805,0.1 -1.481,0.151 -2.029,0.151c-0.459,0 -0.861,-0.012 -1.208,-0.034c-0.347,-0.022 -0.654,-0.067 -0.923,-0.134c-0.268,-0.067 -0.511,-0.154 -0.729,-0.26c-0.218,-0.106 -0.433,-0.243 -0.646,-0.411c-0.458,-0.347 -0.908,-0.847 -1.35,-1.501c-0.442,-0.654 -0.9,-1.395 -1.375,-2.223c-0.476,-0.827 -0.97,-1.708 -1.485,-2.641c-0.514,-0.934 -1.057,-1.848 -1.627,-2.743c-0.168,-0.268 -0.31,-0.481 -0.427,-0.637c-0.118,-0.157 -0.246,-0.28 -0.386,-0.369c-0.14,-0.09 -0.302,-0.151 -0.487,-0.185c-0.184,-0.033 -0.422,-0.056 -0.713,-0.067l-1.157,-0.033l0,5.82ZM164.505,276.303c0.682,0.033 1.314,0.05 1.895,0.05c1.935,0 3.352,-0.411 4.252,-1.233c0.901,-0.822 1.351,-2.11 1.351,-3.866c0,-1.699 -0.431,-2.941 -1.292,-3.723c-0.861,-0.783 -2.208,-1.174 -4.042,-1.174c-0.313,0 -0.649,0.011 -1.007,0.033c-0.357,0.022 -0.743,0.056 -1.157,0.101l0,9.812Z" style="fill:#da9959;fill-rule:nonzero;"/><path d="M194.814,269.711l0,13.636c0,1.242 0.011,2.466 0.033,3.674l8.168,0l2.147,-4.445l0.755,-0.118l-0.369,6.005l-0.101,0.117c-2.896,-0.033 -5.574,-0.05 -8.034,-0.05l-4.21,0c-1.353,0 -2.739,0.017 -4.159,0.05l-0.067,-0.721l2.063,-0.62c0.279,-0.079 0.43,-0.252 0.453,-0.52c0.011,-0.448 0.019,-0.948 0.025,-1.501c0.005,-0.554 0.008,-1.166 0.008,-1.837l0,-13.603c0,-0.57 -0.003,-1.084 -0.008,-1.543c-0.006,-0.458 -0.014,-0.872 -0.025,-1.241c-0.012,-0.291 -0.146,-0.481 -0.403,-0.57l-2.08,-0.654l-0.033,-0.722c1.442,0.045 2.829,0.067 4.159,0.067c1.342,0 2.729,-0.022 4.16,-0.067l0.067,0.722l-2.08,0.62c-0.268,0.067 -0.414,0.241 -0.436,0.52c-0.011,0.391 -0.02,0.962 -0.025,1.711c-0.006,0.749 -0.008,1.112 -0.008,1.09Z" style="fill:#da9959;fill-rule:nonzero;"/><path d="M219.906,264.696l7.447,20.513c0.279,0.772 0.534,1.294 0.763,1.568c0.229,0.274 0.556,0.478 0.981,0.613l1.577,0.469l0.033,0.721c-1.465,-0.033 -2.823,-0.05 -4.076,-0.05c-1.274,0 -2.778,0.017 -4.511,0.05l-0.068,-0.721l1.594,-0.469c0.223,-0.079 0.383,-0.165 0.478,-0.26c0.095,-0.095 0.142,-0.244 0.142,-0.445c0,-0.223 -0.058,-0.517 -0.176,-0.88c-0.117,-0.364 -0.282,-0.847 -0.494,-1.451l-1.577,-4.495l-8.085,0l-1.761,4.478c-0.235,0.626 -0.419,1.124 -0.553,1.493c-0.134,0.369 -0.201,0.659 -0.201,0.872c0,0.19 0.053,0.333 0.159,0.428c0.106,0.095 0.265,0.176 0.478,0.243l1.56,0.453l0.033,0.754c-1.588,-0.033 -2.885,-0.05 -3.891,-0.05c-1.006,0 -2.13,0.017 -3.371,0.05l-0.084,-0.721l1.694,-0.52c0.425,-0.134 0.738,-0.341 0.939,-0.62c0.201,-0.28 0.425,-0.716 0.671,-1.309l8.571,-20.462l1.728,-0.252ZM214.555,278.332l6.91,0l-3.27,-9.241l-3.64,9.241Z" style="fill:#da9959;fill-rule:nonzero;"/><path d="M236.142,269.829l0,13.552c0,1.319 0.011,2.415 0.033,3.287c0.011,0.313 0.151,0.504 0.419,0.571l1.996,0.587l0.034,0.754c-1.398,-0.033 -2.544,-0.05 -3.439,-0.05c-0.872,0 -2.029,0.017 -3.471,0.05l-0.068,-0.721l2.063,-0.62c0.291,-0.09 0.442,-0.263 0.453,-0.52c0.023,-0.906 0.034,-2.019 0.034,-3.338l0,-13.603c0,-1.118 -0.011,-2.046 -0.034,-2.784c-0.011,-0.291 -0.145,-0.481 -0.402,-0.57l-2.08,-0.654l-0.034,-0.722c1.443,0.045 2.583,0.067 3.422,0.067c0.503,0 1.012,-0.022 1.526,-0.067l14.089,17.595l0,-12.932c0,-1.085 -0.011,-2.018 -0.033,-2.801c-0.011,-0.257 -0.157,-0.43 -0.436,-0.52l-1.979,-0.57l-0.034,-0.772c1.431,0.045 2.589,0.067 3.472,0.067c0.895,0 2.041,-0.022 3.438,-0.067l0.068,0.722l-2.114,0.654c-0.257,0.089 -0.391,0.279 -0.402,0.57c-0.023,0.738 -0.034,1.666 -0.034,2.784l0,18.752l-1.409,0.134l-15.078,-18.835Z" style="fill:#da9959;fill-rule:nonzero;"/><path d="M261.955,265.115l4.076,0c2.504,0 5.149,-0.022 7.933,-0.067l0.101,0.134l-0.973,5.183l-0.671,0.118l-1.04,-3.875l-7.749,0l0,9.225l1.526,0c1.163,0 2.46,-0.011 3.892,-0.033c0.29,-0.012 0.48,-0.157 0.57,-0.436l0.587,-2.265l0.906,-0.033c-0.034,1.565 -0.051,2.722 -0.051,3.472c0,0.726 0.017,1.867 0.051,3.421l-0.906,0.067l-0.604,-2.298c-0.089,-0.29 -0.263,-0.441 -0.52,-0.452c-1.453,-0.023 -2.767,-0.034 -3.941,-0.034l-1.51,0l0,6.105c0,1.242 0.011,2.466 0.034,3.674l8.05,0l2.047,-4.261l0.755,-0.134l-0.369,5.837l-0.118,0.117c-2.896,-0.033 -5.568,-0.05 -8.017,-0.05l-3.992,0c-1.353,0 -2.74,0.017 -4.16,0.05l-0.067,-0.721l2.063,-0.62c0.28,-0.079 0.431,-0.252 0.453,-0.52c0.011,-0.448 0.02,-0.948 0.025,-1.501c0.006,-0.554 0.009,-1.166 0.009,-1.837l0,-13.603c0,-0.57 -0.003,-1.084 -0.009,-1.543c-0.005,-0.458 -0.014,-0.872 -0.025,-1.241c-0.011,-0.291 -0.145,-0.481 -0.403,-0.57l-2.079,-0.654l-0.034,-0.722c1.443,0.045 2.829,0.067 4.16,0.067Z" style="fill:#da9959;fill-rule:nonzero;"/><path d="M208.732,219.587l5.337,-0.97l-2.426,38.931l-0.849,0.849c-16.494,-0.242 -33.757,-0.364 -51.787,-0.364c-16.737,0 -32.14,0.122 -46.209,0.364l-0.849,-9.945c7.601,-4.932 14.433,-9.5 20.497,-13.705c6.064,-4.204 11.32,-8.126 15.767,-11.764c4.447,-3.558 8.368,-6.954 11.764,-10.188c3.396,-3.234 6.246,-6.448 8.55,-9.642c2.305,-3.193 4.063,-6.448 5.276,-9.763c1.213,-3.315 1.819,-6.792 1.819,-10.43c0,-7.439 -2.708,-13.341 -8.125,-17.707c-5.418,-4.366 -12.048,-6.549 -19.891,-6.549c-9.217,0 -18.515,2.506 -27.894,7.519l-4.609,-8.005c15.12,-10.268 30.28,-15.402 45.481,-15.402c11.4,0 20.88,2.769 28.44,8.307c7.56,5.539 11.34,13.24 11.34,23.105c0,6.145 -1.375,11.865 -4.124,17.161c-2.749,5.296 -6.751,10.491 -12.007,15.585c-5.255,5.094 -11.683,10.248 -19.283,15.463c-7.601,5.215 -16.293,10.734 -26.076,16.555l0.121,0.607l60.277,0l9.46,-20.012Z" style="fill:#da9959;fill-rule:nonzero;"/><path d="M236.142,216.312l7.034,-70.828c10.107,0.323 22.195,0.485 36.264,0.485c16.251,0 31.493,-0.162 45.723,-0.485l0.728,0.97l-3.032,20.012l-69.98,-1.698l-3.396,34.201c6.873,-1.132 13.341,-1.698 19.405,-1.698c18.516,0 33.292,4.488 44.329,13.462c11.036,8.975 16.555,21.306 16.555,36.991c0,20.052 -9.238,36.041 -27.713,47.967c-18.476,11.926 -41.741,17.97 -69.798,18.132l-1.213,-8.975c22.074,-0.808 40.043,-5.821 53.91,-15.039c13.867,-9.217 20.8,-21.628 20.8,-37.233c0,-12.048 -4.063,-21.386 -12.189,-28.016c-8.126,-6.631 -19.547,-9.946 -34.262,-9.946c-7.358,0 -14.837,0.849 -22.437,2.547l-0.728,-0.849Z" style="fill:#da9959;fill-rule:nonzero;"/><path d="M208.732,219.587l5.337,-0.97l-2.426,38.931l-0.849,0.849c-16.494,-0.242 -33.757,-0.364 -51.787,-0.364c-16.737,0 -32.14,0.122 -46.209,0.364l-0.849,-9.945c7.601,-4.932 14.433,-9.5 20.497,-13.705c6.064,-4.204 11.32,-8.126 15.767,-11.764c4.447,-3.558 8.368,-6.954 11.764,-10.188c3.396,-3.234 6.246,-6.448 8.55,-9.642c2.305,-3.193 4.063,-6.448 5.276,-9.763c1.213,-3.315 1.819,-6.792 1.819,-10.43c0,-7.439 -2.708,-13.341 -8.125,-17.707c-5.418,-4.366 -12.048,-6.549 -19.891,-6.549c-9.217,0 -18.515,2.506 -27.894,7.519l-4.609,-8.005c15.12,-10.268 30.28,-15.402 45.481,-15.402c11.4,0 20.88,2.769 28.44,8.307c7.56,5.539 11.34,13.24 11.34,23.105c0,6.145 -1.375,11.865 -4.124,17.161c-2.749,5.296 -6.751,10.491 -12.007,15.585c-5.255,5.094 -11.683,10.248 -19.283,15.463c-7.601,5.215 -16.293,10.734 -26.076,16.555l0.121,0.607l60.277,0l9.46,-20.012Z" style="fill:none;stroke-width:1px;stroke:#da9959;"/><path d="M236.142,216.312l7.034,-70.828c10.107,0.323 22.195,0.485 36.264,0.485c16.251,0 31.493,-0.162 45.723,-0.485l0.728,0.97l-3.032,20.012l-69.98,-1.698l-3.396,34.201c6.873,-1.132 13.341,-1.698 19.405,-1.698c18.516,0 33.292,4.488 44.329,13.462c11.036,8.975 16.555,21.306 16.555,36.991c0,20.052 -9.238,36.041 -27.713,47.967c-18.476,11.926 -41.741,17.97 -69.798,18.132l-1.213,-8.975c22.074,-0.808 40.043,-5.821 53.91,-15.039c13.867,-9.217 20.8,-21.628 20.8,-37.233c0,-12.048 -4.063,-21.386 -12.189,-28.016c-8.126,-6.631 -19.547,-9.946 -34.262,-9.946c-7.358,0 -14.837,0.849 -22.437,2.547l-0.728,-0.849Z" style="fill:none;stroke-width:1px;stroke:#da9959;"/></g></svg>